HIERARCHY
ROOT Hips
{
    OFFSET 0.000000 0.000000 0.000000
    CHANNELS 6 Xposition Yposition Zposition Zrotation Xrotation Yrotation
        JOINT Chest
        {
            OFFSET -0.000000 29.765863 -0.000000
            CHANNELS 3 Zrotation Xrotation Yrotation
            JOINT Neck
            {
                OFFSET -0.000000 22.048780 0.000000
                CHANNELS 3 Zrotation Xrotation Yrotation
                JOINT Head
                {
                    OFFSET -0.000000 10.266670 0.000000
                    CHANNELS 3 Zrotation Xrotation Yrotation
                    End Site
                    {
                        OFFSET -0.000000 15.866677 0.000000
                    }
                }
            }
            JOINT LeftCollar
            {
                OFFSET -0.000000 22.048780 0.000000
                CHANNELS 3 Zrotation Xrotation Yrotation
                JOINT LeftShoulder
                {
                    OFFSET 18.666672 -0.000000 0.000000
                    CHANNELS 3 Zrotation Xrotation Yrotation
                    JOINT LeftElbow
                    {
                        OFFSET 23.656216 0.000000 0.000000
                        CHANNELS 3 Zrotation Xrotation Yrotation
                        JOINT LeftWrist
                        {
                            OFFSET 24.590921 0.000000 0.000000
                            CHANNELS 3 Zrotation Xrotation Yrotation
                            End Site
                            {
                                OFFSET 0.000000 -14.000008 0.000000
                            }
                        }
                    }
                }
            }
            JOINT RightCollar
            {
                OFFSET -0.000000 22.048780 0.000000
                CHANNELS 3 Zrotation Xrotation Yrotation
                JOINT RightShoulder
                {
                    OFFSET -18.666672 0.000000 0.000000
                    CHANNELS 3 Zrotation Xrotation Yrotation
                    JOINT RightElbow
                    {
                        OFFSET -23.656216 0.000000 0.000000
                        CHANNELS 3 Zrotation Xrotation Yrotation
                        JOINT RightWrist
                        {
                            OFFSET -24.590921 0.000000 0.000000
                            CHANNELS 3 Zrotation Xrotation Yrotation
                            End Site
                            {
                                OFFSET -0.000000 -14.000008 0.000000
                            }
                        }
                    }
                }
            }
        }
    JOINT LeftHip
    {
        OFFSET 11.200002 0.000000 0.000000
        CHANNELS 3 Zrotation Xrotation Yrotation
        JOINT LeftKnee
        {
            OFFSET -0.000000 -37.692356 0.000000
            CHANNELS 3 Zrotation Xrotation Yrotation
            JOINT LeftAnkle
            {
                OFFSET -0.000000 -39.524944 0.000000
                CHANNELS 3 Zrotation Xrotation Yrotation
                End Site
                {
                    OFFSET -0.000000 -4.666668 15.866677
                }
            }
        }
    }
    JOINT RightHip
    {
        OFFSET -11.200002 0.000000 0.000000
        CHANNELS 3 Zrotation Xrotation Yrotation
        JOINT RightKnee
        {
            OFFSET -0.000000 -37.692356 0.000000
            CHANNELS 3 Zrotation Xrotation Yrotation
            JOINT RightAnkle
            {
                OFFSET -0.000000 -39.524944 0.000000
                CHANNELS 3 Zrotation Xrotation Yrotation
                End Site
                {
                    OFFSET -0.000000 -4.666668 15.866677
                }
            }
        }
    }
}
MOTION
Frames:    13
Frame Time:    0.010000
9.488864    84.667068    -57.930695    2.997378    5.796552    -13.637478    -24.134483    -14.662501    42.488922    7.607708    30.708727    -21.894434    26.480463    -21.162727    -14.770656    -9.056088    -0.330706    4.177406    -70.333908    9.107820    25.745293    14.073231    -14.295611    -87.432266    94.529945    -12.885713    63.454838    24.427050    1.132690    3.496613    -36.936954    23.511913    117.755730    -18.638277    -7.080526    44.342552    -84.712662    -4.001691    18.711084    -13.970946    -27.469105    -19.179510    10.763865    31.377089    -57.368416    12.181396    -9.659007    11.526656    1.170515    -4.382508    -10.838388    2.677590    44.772675    -5.727292    12.455046    31.125523    0.674891    
9.648662    84.654602    -58.131294    2.987475    5.717424    -14.281997    -23.158886    -13.975935    42.092979    6.596976    30.279575    -21.251925    26.613070    -20.870804    -14.448612    -9.035394    -0.329169    4.316419    -70.686058    8.686740    25.857904    14.272470    -13.836487    -87.346436    94.718201    -11.026312    64.753601    24.514006    0.791050    2.068144    -37.591648    24.775698    118.415665    -18.431536    -7.262378    44.176414    -82.776161    -4.044313    17.671946    -13.857973    -27.546703    -19.021486    10.751276    31.381542    -57.012554    12.081977    -9.642769    11.637846    0.655497    -4.592041    -11.323621    2.567596    44.946938    -4.903867    12.423016    31.608349    0.751578    
9.786137    84.629105    -58.336704    2.881554    5.799585    -15.196342    -22.339418    -13.826730    41.777401    6.540261    30.377384    -20.826168    26.381630    -20.875992    -14.017325    -8.879483    -0.345318    4.419675    -70.722916    8.244824    26.222370    14.881024    -14.625422    -86.863289    92.560120    -10.730754    65.341644    24.767654    0.490945    0.842517    -38.349934    26.511814    119.042038    -18.325397    -7.397457    44.567818    -82.567139    -2.705848    16.364883    -13.419377    -27.658051    -18.912556    10.380012    31.112968    -54.496273    11.589430    -9.770235    10.094283    0.445699    -4.900137    -11.015925    2.677773    44.946400    -4.761645    11.171596    32.331455    2.204849    
9.893182    84.630630    -58.514206    2.883251    5.447116    -15.645411    -21.507486    -13.027368    40.931961    5.360891    30.227015    -20.314606    27.055790    -20.528948    -13.894453    -9.191024    -0.348953    4.198072    -70.775803    8.564261    26.391153    15.640702    -15.162883    -85.578362    89.972946    -11.884266    62.372601    24.307985    0.207086    -0.339689    -39.050549    28.654011    119.042763    -18.627329    -7.748953    44.771107    -80.384903    -2.991110    15.376889    -13.351416    -27.366869    -18.852381    10.297120    30.988348    -54.130775    11.342777    -9.725667    10.237959    -0.026176    -4.604689    -11.314387    2.761603    44.690128    -4.433197    11.762930    32.715237    2.000161    
9.939046    84.607094    -58.728863    2.583844    5.248901    -16.270676    -20.767097    -11.713759    39.983757    4.500239    29.249348    -19.585920    26.831173    -19.655983    -13.617446    -8.924399    -0.357156    4.317818    -70.781837    8.135368    26.045124    15.139314    -13.396769    -84.285660    91.765976    -13.873431    58.273689    24.098011    0.000102    -0.961152    -39.687820    29.696825    119.676971    -18.255453    -7.488119    44.668221    -82.888786    -2.587150    12.134208    -12.837675    -27.329254    -17.651030    10.721848    30.930552    -54.881546    11.295838    -9.770154    10.423031    0.117323    -4.266051    -11.023829    2.716005    44.177120    -4.331373    13.543564    33.539135    1.085049    
10.052861    84.637840    -58.938019    2.544672    5.046143    -17.130859    -19.976328    -11.220757    39.378731    3.889174    28.386267    -18.978893    26.488005    -18.652506    -13.508329    -8.992749    -0.382348    4.632679    -70.642143    8.555484    25.841055    15.627306    -13.999308    -82.041718    86.634300    -18.433319    52.431927    24.050688    -0.266178    -2.497371    -39.103279    31.533318    118.985306    -17.295021    -7.015538    45.811729    -82.315559    -2.779495    10.683826    -12.481649    -27.162018    -16.982616    10.712431    30.627619    -54.719231    11.456709    -9.661520    10.551007    -0.225861    -3.922791    -10.567626    2.958952    43.689167    -3.703616    23.043936    34.101429    -5.954185    
10.199261    84.649727    -59.139381    2.475888    4.904984    -17.987766    -19.293098    -10.579711    38.764942    3.836256    27.946499    -18.572321    25.937389    -18.278162    -13.303358    -9.092340    -0.350642    4.535695    -69.851456    8.473517    25.756443    14.942440    -12.460495    -81.472214    88.918579    -19.639536    54.627750    23.729319    -0.491995    -3.483326    -38.670856    33.924984    118.293785    -16.771839    -6.913692    46.303318    -81.476646    -3.512349    9.784298    -12.174519    -27.040953    -16.506565    10.728269    30.352957    -54.189922    10.966209    -9.679338    10.686014    -0.201581    -3.754022    -10.783781    1.836910    43.365330    -3.586648    21.023722    34.963814    -2.822939    
10.351730    84.663483    -59.358101    2.416847    4.791501    -18.898748    -18.672415    -9.992445    38.028706    3.943784    27.755920    -18.098377    25.315657    -18.135433    -12.923057    -9.196464    -0.358935    4.572829    -69.026527    8.764734    25.451439    14.821956    -12.444283    -80.425980    86.752602    -21.293697    56.832577    23.434519    -0.685475    -4.306284    -38.323864    36.145035    117.588173    -16.096453    -6.675449    46.725731    -81.101166    -4.508362    8.731114    -11.885661    -27.044512    -15.673046    10.959814    30.216370    -54.221241    10.887997    -9.665527    10.808390    -0.407401    -3.622430    -10.213673    1.990684    43.246349    -2.629707    20.686541    33.937016    -2.554498    
10.514190    84.694031    -59.700756    2.504681    4.968222    -19.947636    -18.049166    -9.905061    37.393143    3.926719    27.597916    -17.612537    24.900846    -17.888083    -12.582033    -9.095487    -0.385135    4.686265    -69.534966    9.617716    25.083515    15.731069    -13.820383    -79.905029    84.066750    -20.581247    56.318073    23.178385    -0.863751    -5.161896    -37.559559    38.368813    116.465195    -15.302886    -6.385854    47.488289    -79.183792    -4.914256    7.825099    -11.519017    -27.418776    -15.449410    10.684589    30.121655    -53.360806    10.749562    -9.525202    10.640451    -0.579180    -3.977842    -9.828547    1.767457    43.421902    -0.591727    20.894249    31.913637    -3.984019    
10.660277    84.706169    -59.858162    2.375769    4.674426    -20.812672    -17.207399    -6.520875    36.869835    2.546778    22.947252    -17.010708    24.614876    -15.148531    -13.168917    -8.195351    -0.353949    4.912392    -70.041008    9.766452    22.884930    15.919891    -13.550670    -79.785866    83.006355    -20.349459    56.635658    21.661154    -0.937269    -6.034623    -34.965065    38.774368    114.300751    -14.360193    -5.984310    47.904285    -79.051926    -6.238557    7.075082    -11.213462    -27.117195    -15.159049    10.611777    29.930120    -52.818798    10.755342    -9.464300    10.740085    -0.720253    -3.405649    -9.634748    1.378900    43.146454    0.129178    18.383106    31.438820    -1.038446    
10.904579    84.675827    -60.032051    2.334702    4.434594    -21.785757    -17.697348    -7.450736    34.269897    0.810307    25.687994    -15.587976    26.449932    -14.988182    -11.751597    -8.163028    -0.379117    5.422142    -69.280388    10.643626    24.190050    15.674705    -13.112062    -80.382751    87.267097    -16.893343    60.242191    22.609131    -1.138163    -6.180057    -35.635315    42.407940    113.975685    -13.598139    -5.779860    48.896255    -79.327003    -5.985554    5.282001    -11.081884    -26.938074    -15.048791    10.721323    29.927448    -54.150856    10.730670    -9.296063    12.865067    -1.129603    -2.987659    -8.617361    2.568245    42.629658    0.666460    17.388281    30.692829    -1.675197    
10.988951    84.661186    -60.152733    2.053182    3.870662    -22.902914    -17.139730    -6.573705    33.350811    0.416068    24.906267    -14.717812    26.132652    -14.145939    -11.224494    -8.066491    -0.421754    6.381732    -68.843040    11.154506    23.449087    15.214713    -12.534449    -80.339561    87.197449    -16.755558    57.510975    22.353802    -1.176352    -6.254441    -34.619736    44.269455    112.449394    -12.423551    -5.236150    49.636707    -80.440063    -7.252641    5.533129    -10.498379    -26.275118    -14.166440    10.656025    29.610289    -53.801922    10.730534    -9.245421    13.002057    -1.166381    -2.040725    -7.820213    2.481441    42.627155    1.769411    19.833788    27.955751    -3.041699    
11.159466    84.685593    -60.422729    1.997112    3.693101    -24.096014    -17.374823    -5.695868    31.557610    -0.316643    24.832447    -13.648829    26.746832    -13.482805    -10.388470    -7.475245    -0.409410    6.868763    -68.498688    11.552507    22.937605    15.103615    -12.574163    -79.942696    86.405823    -17.949032    55.174320    22.751684    -1.184466    -5.963102    -33.415092    46.360195    110.411896    -11.640441    -5.023696    50.295433    -77.609764    -8.776722    6.649600    -9.999289    -26.176287    -13.539265    10.440720    29.387651    -53.057816    10.490936    -9.253409    12.965234    -1.346418    -1.767647    -7.483547    2.262984    42.619297    2.907906    19.852505    26.122770    -2.743563    
